<?xml version="1.0" encoding="UTF-8" standalone="no"?>
<!DOCTYPE svg PUBLIC "-//W3C//DTD SVG 20010904//EN"
              "http://www.w3.org/TR/2001/REC-SVG-20010904/DTD/svg10.dtd">

<svg xmlns="http://www.w3.org/2000/svg"
     width="7.11111in" height="7.11111in"
     viewBox="0 0 512 512">
  <path id="Selection"
        fill="none" stroke="black" stroke-width="1"
        d="M 326.00,224.00
           C 326.00,224.00 292.99,189.00 292.99,189.00
             285.63,181.47 276.40,173.95 272.46,164.00
             265.85,147.29 272.61,127.12 290.00,120.47
             294.51,118.74 298.28,118.95 303.00,119.00
             317.75,119.18 323.98,128.22 333.09,138.00
             333.09,138.00 346.96,152.00 346.96,152.00
             346.96,152.00 366.00,172.00 366.00,172.00
             366.00,172.00 375.09,182.00 375.09,182.00
             375.09,182.00 397.09,205.00 397.09,205.00
             397.09,205.00 416.28,225.00 416.28,225.00
             424.97,234.85 431.82,238.52 432.00,253.00
             432.06,258.22 432.24,262.99 430.45,268.00
             426.82,278.16 414.43,287.97 407.17,296.00
             407.17,296.00 370.09,335.00 370.09,335.00
             370.09,335.00 339.00,368.00 339.00,368.00
             325.15,381.87 320.31,393.25 299.00,393.00
             276.83,392.73 265.12,368.34 272.09,349.00
             275.55,339.40 283.96,332.05 291.00,325.00
             291.00,325.00 303.04,312.00 303.04,312.00
             303.04,312.00 326.00,288.00 326.00,288.00
             326.00,288.00 111.00,288.00 111.00,288.00
             104.50,287.99 99.68,287.48 94.00,283.87
             69.32,268.18 77.95,224.38 109.00,224.00
             109.00,224.00 326.00,224.00 326.00,224.00 Z" />
</svg>
